<?xml version="1.0" encoding="utf-8"?>
<!-- Generator: Adobe Illustrator 23.1.0, SVG Export Plug-In . SVG Version: 6.00 Build 0)  -->
<svg version="1.1" id="Layer_1" xmlns="http://www.w3.org/2000/svg" xmlns:xlink="http://www.w3.org/1999/xlink" x="0px" y="0px"
	 viewBox="0 0 93.4 131.1" enable-background="new 0 0 93.4 131.1" xml:space="preserve">
<g>
	<linearGradient id="SVGID_1_" gradientUnits="userSpaceOnUse" x1="-7.526973e-05" y1="32.2398" x2="42.5615" y2="32.2398">
		<stop  offset="0" style="stop-color:#2BC4F3"/>
		<stop  offset="0.5" style="stop-color:#00AEEE"/>
		<stop  offset="1" style="stop-color:#0095DA"/>
	</linearGradient>
	<path fill="url(#SVGID_1_)" d="M42.6,45C42.6,45,28,2.2,12,17.2c-16,15-16.1,34,0,33.3C28,49.8,42.6,45,42.6,45z"/>
	<linearGradient id="SVGID_2_" gradientUnits="userSpaceOnUse" x1="68.9695" y1="27.6687" x2="74.1053" y2="66.7009">
		<stop  offset="0" style="stop-color:#2BC4F3"/>
		<stop  offset="0.5" style="stop-color:#00AEEE"/>
		<stop  offset="1" style="stop-color:#0095DA"/>
	</linearGradient>
	<path fill="url(#SVGID_2_)" d="M51.1,50.1c0,0,12.8,43.4,29.3,29.1C97,64.9,98,46,81.9,46C65.9,46,51.1,50.1,51.1,50.1z"/>
	<linearGradient id="SVGID_3_" gradientUnits="userSpaceOnUse" x1="40.7775" y1="21.4882" x2="78.0619" y2="21.4882">
		<stop  offset="0" style="stop-color:#64C08A"/>
		<stop  offset="0.5" style="stop-color:#00A550"/>
		<stop  offset="1" style="stop-color:#00914C"/>
	</linearGradient>
	<path fill="url(#SVGID_3_)" d="M49.7,43c0,0,41-19.1,24.3-33.4C57.4-4.6,38.6-2.7,41,13.2C43.4,29,49.7,43,49.7,43z"/>
	<linearGradient id="SVGID_4_" gradientUnits="userSpaceOnUse" x1="14.2749" y1="71.634" x2="51.2695" y2="71.634">
		<stop  offset="0" style="stop-color:#64C08A"/>
		<stop  offset="0.5" style="stop-color:#00A550"/>
		<stop  offset="1" style="stop-color:#00914C"/>
	</linearGradient>
	<path fill="url(#SVGID_4_)" d="M43.7,50.2c0,0-41.8,17.4-25.7,32.3c16.1,14.9,35,13.8,33.2-2.2C49.4,64.4,43.7,50.2,43.7,50.2z"/>
</g>
<g>
	<path fill="#3BBC7E" d="M0.5,104c1.2-0.2,3-0.4,4.9-0.4c2.7,0,4.4,0.5,5.7,1.5c1.1,0.8,1.7,2,1.7,3.7c0,2-1.3,3.8-3.5,4.6v0.1
		c2,0.5,4.3,2.1,4.3,5.2c0,1.8-0.7,3.2-1.8,4.2c-1.5,1.3-3.8,2-7.2,2c-1.9,0-3.3-0.1-4.2-0.2V104z M3.2,112.5h2.5
		c2.9,0,4.5-1.5,4.5-3.5c0-2.5-1.9-3.4-4.6-3.4c-1.2,0-2,0.1-2.4,0.2V112.5z M3.2,122.5c0.5,0.1,1.3,0.1,2.3,0.1
		c2.8,0,5.4-1,5.4-4.1c0-2.9-2.5-4-5.4-4H3.2V122.5z"/>
	<path fill="#3BBC7E" d="M20.2,105.4c0,0.9-0.7,1.7-1.7,1.7c-1,0-1.6-0.7-1.6-1.7c0-1,0.7-1.7,1.7-1.7
		C19.6,103.7,20.2,104.4,20.2,105.4z M17.2,124.6v-15h2.7v15H17.2z"/>
	<path fill="#3BBC7E" d="M24.5,113.6c0-1.6,0-2.8-0.1-4.1h2.4l0.2,2.5H27c0.7-1.4,2.5-2.8,5-2.8c2.1,0,5.3,1.2,5.3,6.4v9h-2.7v-8.7
		c0-2.4-0.9-4.4-3.5-4.4c-1.8,0-3.2,1.3-3.7,2.8c-0.1,0.3-0.2,0.8-0.2,1.3v9h-2.7V113.6z"/>
	<path fill="#3BBC7E" d="M54.6,109.6c-0.1,1.1-0.1,2.3-0.1,4.1v8.7c0,3.4-0.7,5.6-2.1,6.9c-1.5,1.4-3.6,1.8-5.5,1.8
		c-1.8,0-3.8-0.4-5-1.2l0.7-2.1c1,0.6,2.5,1.2,4.4,1.2c2.8,0,4.8-1.5,4.8-5.2V122h-0.1c-0.8,1.4-2.5,2.5-4.8,2.5
		c-3.7,0-6.4-3.2-6.4-7.3c0-5.1,3.3-8,6.8-8c2.6,0,4,1.4,4.7,2.6h0.1l0.1-2.3H54.6z M51.8,115.5c0-0.5,0-0.9-0.2-1.2
		c-0.5-1.6-1.8-2.9-3.8-2.9c-2.6,0-4.5,2.2-4.5,5.7c0,2.9,1.5,5.4,4.4,5.4c1.7,0,3.2-1.1,3.8-2.8c0.2-0.5,0.2-1,0.2-1.5V115.5z"/>
	<path fill="#3BBC7E" d="M62.5,118l-2.2,6.6h-2.8l7.1-20.9h3.3l7.1,20.9h-2.9l-2.2-6.6H62.5z M69.3,115.9l-2-6
		c-0.5-1.4-0.8-2.6-1.1-3.8h-0.1c-0.3,1.2-0.7,2.5-1.1,3.8l-2,6H69.3z"/>
	<path fill="#3BBC7E" d="M80.9,105.4c0,0.9-0.7,1.7-1.7,1.7c-1,0-1.6-0.7-1.6-1.7c0-1,0.7-1.7,1.7-1.7
		C80.3,103.7,80.9,104.4,80.9,105.4z M77.9,124.6v-15h2.7v15H77.9z"/>
	<path fill="#3BBC7E" d="M85.2,114.3c0-1.8,0-3.3-0.1-4.7h2.4l0.1,2.9h0.1c0.7-2,2.3-3.3,4.2-3.3c0.3,0,0.5,0,0.8,0.1v2.6
		c-0.3-0.1-0.6-0.1-0.9-0.1c-1.9,0-3.3,1.5-3.7,3.5c-0.1,0.4-0.1,0.8-0.1,1.3v8h-2.7V114.3z"/>
</g>
</svg>
