<?xml version="1.0" encoding="utf-8"?>
<!-- Generator: Adobe Illustrator 23.1.0, SVG Export Plug-In . SVG Version: 6.00 Build 0)  -->
<svg version="1.1" id="Layer_1" xmlns="http://www.w3.org/2000/svg" xmlns:xlink="http://www.w3.org/1999/xlink" x="0px" y="0px"
	 viewBox="0 0 78.9 15.7" enable-background="new 0 0 78.9 15.7" xml:space="preserve">
<linearGradient id="SVGID_1_" gradientUnits="userSpaceOnUse" x1="0" y1="7.8601" x2="31.5864" y2="7.8601">
	<stop  offset="0" style="stop-color:#2484C6"/>
	<stop  offset="1" style="stop-color:#24C8C6"/>
</linearGradient>
<path fill="url(#SVGID_1_)" d="M31.6,7.9c0,4.3-3.5,7.9-7.9,7.9H7.9C3.5,15.7,0,12.2,0,7.9l0,0C0,3.5,3.5,0,7.9,0h15.9
	C28.1,0,31.6,3.5,31.6,7.9L31.6,7.9z"/>
<g>
	<path fill="#FFFFFF" d="M9.6,3.7c1.4,0,2.3,0.7,2.3,2.1c0,0.8-0.3,1.3-0.8,1.7v0c0.8,0.3,1.1,0.9,1.1,1.9c0,1.4-1,2.2-2.5,2.2H6.5
		c-0.3,0-0.4-0.1-0.4-0.4V4c0-0.3,0.1-0.4,0.4-0.4H9.6z M9.4,6.9c0.7,0,1-0.3,1-1c0-0.7-0.3-1-1-1H7.5v2H9.4z M9.6,8.2H7.5v2.1h2.1
		c0.7,0,1.1-0.3,1.1-1C10.7,8.5,10.3,8.2,9.6,8.2z"/>
	<path fill="#FFFFFF" d="M20.4,3.7c0.3,0,0.4,0.1,0.4,0.4v7.1c0,0.3-0.1,0.4-0.4,0.4h-0.6c-0.3,0-0.4-0.1-0.4-0.4V7.8
		c0-0.7,0.1-1.4,0.3-2.2h-0.1c-0.2,0.6-0.5,1.3-0.9,2l-1.1,1.9c-0.1,0.2-0.3,0.3-0.4,0.3h-0.4c-0.2,0-0.3,0-0.4-0.3l-1.1-1.9
		c-0.3-0.6-0.6-1.3-0.9-2h-0.1c0.2,0.8,0.2,1.5,0.2,2.2v3.4c0,0.3-0.1,0.4-0.4,0.4h-0.5c-0.3,0-0.4-0.1-0.4-0.4V4
		c0-0.3,0.1-0.4,0.4-0.4h0.5c0.3,0,0.4,0.1,0.5,0.3L17,8.1L19.4,4c0.1-0.3,0.2-0.3,0.5-0.3H20.4z"/>
	<path fill="#FFFFFF" d="M25.7,3.7c1.6,0,2.6,1,2.6,2.6c0,1.6-1,2.6-2.6,2.6h-1.9v2.4c0,0.3-0.1,0.4-0.4,0.4h-0.6
		c-0.3,0-0.4-0.1-0.4-0.4V4c0-0.3,0.1-0.4,0.4-0.4H25.7z M25.5,7.5c0.8,0,1.3-0.5,1.3-1.3c0-0.8-0.5-1.3-1.3-1.3h-1.8v2.5H25.5z"/>
</g>
<g>
	<path fill="#27B7D8" d="M40.2,9.5l-0.3-0.1c-0.1,0-0.2,0-0.3,0.1c-0.3,1-0.9,1.5-2.2,1.5c-1.4,0-2.2-0.8-2.2-2V6.3
		c0-1.3,0.8-2,2.2-2c1.3,0,1.9,0.4,2.2,1.4c0.1,0.1,0.1,0.2,0.3,0.1l0.3-0.1c0.2-0.1,0.2-0.1,0.1-0.3c-0.4-1.3-1.3-1.9-3-1.9
		c-2,0-3,1-3,2.8v2.6c0,1.7,1.1,2.8,3,2.8c1.7,0,2.6-0.7,3-1.9C40.4,9.6,40.3,9.5,40.2,9.5z"/>
	<path fill="#27B7D8" d="M43.7,5.7c-1.5,0-2.4,0.8-2.4,2v2c0,1.3,0.9,2,2.4,2c1.5,0,2.5-0.8,2.5-2v-2C46.2,6.4,45.3,5.7,43.7,5.7z
		 M45.4,9.7c0,0.8-0.6,1.4-1.7,1.4c-1,0-1.7-0.5-1.7-1.4v-2c0-0.8,0.7-1.4,1.7-1.4c1.1,0,1.7,0.5,1.7,1.4V9.7z"/>
	<path fill="#27B7D8" d="M53.1,5.7c-0.6,0-1.3,0.2-2,0.5c-0.3-0.3-0.8-0.5-1.4-0.5c-0.7,0-1.2,0.1-1.8,0.4c-0.3,0.1-0.4,0.3-0.4,0.6
		v4.7c0,0.1,0.1,0.2,0.2,0.2H48c0.1,0,0.2-0.1,0.2-0.2V6.9c0-0.1,0.1-0.2,0.2-0.3c0.3-0.1,0.7-0.2,1.2-0.2c0.9,0,1.4,0.5,1.4,1.5
		v3.5c0,0.1,0.1,0.2,0.2,0.2h0.3c0.2,0,0.2-0.1,0.2-0.2V7.8c0-0.4-0.1-0.8-0.2-1c0.5-0.3,1-0.4,1.5-0.4c0.9,0,1.4,0.5,1.4,1.5v3.5
		c0,0.1,0.1,0.2,0.2,0.2h0.3c0.2,0,0.2-0.1,0.2-0.2V7.8C55.1,6.4,54.4,5.7,53.1,5.7z"/>
	<path fill="#27B7D8" d="M58.9,5.7c-0.8,0-1.4,0.1-1.9,0.3c-0.4,0.1-0.4,0.3-0.4,0.6v7.2c0,0.1,0.1,0.2,0.2,0.2h0.4
		c0.1,0,0.2-0.1,0.2-0.2v-2.5c0.6,0.3,1.2,0.4,1.7,0.4c1.5,0,2.3-0.7,2.3-2.2V7.9C61.2,6.4,60.4,5.7,58.9,5.7z M60.5,9.5
		c0,1-0.5,1.6-1.6,1.6c-0.5,0-1.1-0.1-1.6-0.4V6.9c0-0.2,0-0.2,0.2-0.3c0.4-0.1,0.8-0.2,1.3-0.2c1.1,0,1.7,0.5,1.7,1.6V9.5z"/>
	<path fill="#27B7D8" d="M64.6,5.7c-1.1,0-1.8,0.4-2.2,1.2c-0.1,0.1,0,0.2,0.1,0.3l0.3,0.1c0.1,0.1,0.2,0,0.3-0.1
		c0.3-0.5,0.8-0.8,1.6-0.8c1.1,0,1.5,0.6,1.5,1.5v0.5c-0.7-0.1-1.2-0.1-1.5-0.1c-1.8,0-2.4,0.5-2.4,1.7c0,0.6,0.2,1,0.5,1.3
		c0.3,0.3,1,0.4,1.9,0.4c0.8,0,1.4-0.1,1.8-0.3c0.3-0.1,0.4-0.2,0.4-0.6V7.9C66.8,6.5,66.2,5.7,64.6,5.7z M66.1,10.6
		c0,0.2,0,0.2-0.2,0.3c-0.3,0.1-0.8,0.2-1.3,0.2c-1.2,0-1.6-0.4-1.6-1.1c0-0.8,0.4-1.1,1.6-1.1c0.4,0,0.9,0,1.5,0.1V10.6z"/>
	<path fill="#27B7D8" d="M70.6,5.7c-0.8,0-1.5,0.1-2.1,0.4c-0.3,0.1-0.4,0.3-0.4,0.6v4.7c0,0.1,0.1,0.2,0.2,0.2h0.4
		c0.1,0,0.2-0.1,0.2-0.2V6.9c0-0.1,0.1-0.2,0.2-0.3c0.5-0.2,1-0.2,1.5-0.2c1,0,1.6,0.5,1.6,1.5v3.5c0,0.1,0.1,0.2,0.2,0.2h0.3
		c0.1,0,0.2-0.1,0.2-0.2V7.9C72.9,6.4,72.1,5.7,70.6,5.7z"/>
	<path fill="#27B7D8" d="M78.7,5.8h-0.4c-0.1,0-0.2,0.1-0.2,0.2v4.5c-0.6,0.2-1.2,0.3-1.6,0.3c-1,0-1.6-0.5-1.6-1.5V6
		c0-0.1,0-0.2-0.2-0.2h-0.3c-0.1,0-0.2,0.1-0.2,0.2v3.4c0,1.4,0.7,2.2,2.2,2.2c0.5,0,1.1-0.1,1.7-0.3v0.7c0,1.1-0.5,1.7-1.6,1.7
		c-0.7,0-1.2-0.3-1.6-0.9c-0.1-0.1-0.2-0.2-0.3-0.1l-0.2,0.1c-0.1,0.1-0.2,0.2-0.1,0.3c0.4,0.8,1.2,1.2,2.2,1.2
		c1.6,0,2.4-0.8,2.4-2.4V6C78.9,5.9,78.9,5.8,78.7,5.8z"/>
</g>
</svg>
