<?xml version="1.0" encoding="utf-8"?>
<!-- Generator: Adobe Illustrator 23.1.0, SVG Export Plug-In . SVG Version: 6.00 Build 0)  -->
<svg version="1.1" id="Layer_1" xmlns="http://www.w3.org/2000/svg" xmlns:xlink="http://www.w3.org/1999/xlink" x="0px" y="0px"
	 viewBox="0 0 245 109.8" enable-background="new 0 0 245 109.8" xml:space="preserve">
<g>
	<g>
		<linearGradient id="SVGID_1_" gradientUnits="userSpaceOnUse" x1="31.9082" y1="11.9107" x2="98.6914" y2="11.9107">
			<stop  offset="0" style="stop-color:#86D0D9"/>
			<stop  offset="0.2409" style="stop-color:#74C6CF"/>
			<stop  offset="0.7198" style="stop-color:#47ACB6"/>
			<stop  offset="1" style="stop-color:#299BA6"/>
		</linearGradient>
		<path fill="url(#SVGID_1_)" d="M97.7,21.8C87.7,9,72.1,0.7,54.6,0.7c-8.1,0-15.8,1.8-22.7,4.9c1.1-0.1,2.3-0.1,3.4-0.1
			c14.5,0,27.7,5.7,37.5,15c2.4-0.3,4.9-0.5,7.4-0.5c6.1,0,12,1,17.5,2.9c0.3,0.1,0.6,0.2,0.9,0.3C98.4,22.7,98,22.3,97.7,21.8z"/>
		<linearGradient id="SVGID_2_" gradientUnits="userSpaceOnUse" x1="57.9785" y1="64.8277" x2="109.1504" y2="64.8277">
			<stop  offset="0" style="stop-color:#86D0D9"/>
			<stop  offset="0.2409" style="stop-color:#74C6CF"/>
			<stop  offset="0.7198" style="stop-color:#47ACB6"/>
			<stop  offset="1" style="stop-color:#299BA6"/>
		</linearGradient>
		<path fill="url(#SVGID_2_)" d="M98.7,23.1c-0.3-0.1-0.6-0.2-0.9-0.3c-5.5-1.9-11.4-2.9-17.5-2.9c-2.5,0-5,0.2-7.4,0.5
			c9.4,8.9,15.6,21.1,16.8,34.8c0.1,1.6,0.2,3.2,0.2,4.9c0,22.1-13.1,41-31.9,49.6c28.6-1.8,51.2-25.5,51.2-54.5
			C109.2,43.2,105.3,32.2,98.7,23.1z"/>
		<linearGradient id="SVGID_3_" gradientUnits="userSpaceOnUse" x1="0.2002" y1="83.2017" x2="36.1416" y2="83.2017">
			<stop  offset="0" style="stop-color:#86D0D9"/>
			<stop  offset="0.2409" style="stop-color:#74C6CF"/>
			<stop  offset="0.7198" style="stop-color:#47ACB6"/>
			<stop  offset="1" style="stop-color:#299BA6"/>
		</linearGradient>
		<path fill="url(#SVGID_3_)" d="M0.2,59.8C2,81.5,16.4,99.6,36.1,106.6c-5.9-8.1-9.7-17.9-10.3-28.6C15.6,74.6,6.7,68.1,0.2,59.8z"
			/>
		<linearGradient id="SVGID_4_" gradientUnits="userSpaceOnUse" x1="25.8076" y1="82.5206" x2="89.8877" y2="82.5206">
			<stop  offset="0" style="stop-color:#86D0D9"/>
			<stop  offset="0.2409" style="stop-color:#74C6CF"/>
			<stop  offset="0.7198" style="stop-color:#47ACB6"/>
			<stop  offset="1" style="stop-color:#299BA6"/>
		</linearGradient>
		<path fill="url(#SVGID_4_)" d="M89.9,60.1c0-1.6-0.1-3.3-0.2-4.9C80,70.7,62.9,80.9,43.3,80.9c-6.1,0-12-1-17.5-2.9
			c0.7,10.6,4.4,20.5,10.3,28.6c5.8,2.1,12,3.2,18.4,3.2c1.1,0,2.3,0,3.4-0.1C76.8,101.1,89.9,82.1,89.9,60.1z"/>
		<linearGradient id="SVGID_5_" gradientUnits="userSpaceOnUse" x1="0" y1="41.7696" x2="72.8301" y2="41.7696">
			<stop  offset="0" style="stop-color:#86D0D9"/>
			<stop  offset="0.2409" style="stop-color:#74C6CF"/>
			<stop  offset="0.7198" style="stop-color:#47ACB6"/>
			<stop  offset="1" style="stop-color:#299BA6"/>
		</linearGradient>
		<path fill="url(#SVGID_5_)" d="M25.8,78c-0.1-1.2-0.1-2.3-0.1-3.5c0-27.6,20.5-50.4,47.1-54.1c-9.8-9.3-23-15-37.5-15
			c-1.1,0-2.3,0-3.4,0.1C13.1,14.2,0,33.2,0,55.3c0,1.5,0.1,3,0.2,4.5C6.7,68.1,15.6,74.6,25.8,78z"/>
	</g>
</g>
<g>
	<path d="M132.7,15.2c0-9.5,5.9-15.2,16.6-15.2c10.6,0,16.5,5.7,16.5,15.2v15.5c0,9.5-5.8,15.2-16.5,15.2
		c-10.7,0-16.6-5.7-16.6-15.2V15.2z M163.9,15.2c0-8.5-5.2-13.5-14.6-13.5c-9.5,0-14.8,5-14.8,13.5v15.4c0,8.5,5.3,13.5,14.8,13.5
		c9.4,0,14.6-5,14.6-13.5V15.2z"/>
	<path d="M206.6,0.9c0.3,0,0.5,0.2,0.5,0.5v43.1c0,0.3-0.2,0.5-0.5,0.5h-0.8c-0.2,0-0.4-0.1-0.6-0.4l-23.5-33.3
		c-0.6-0.9-1.4-2.2-2.5-3.9c-1.2-1.7-2-3-2.5-3.7h-0.1c0,0.8,0.1,2.4,0.1,4.6c0.1,2.2,0.1,4,0.1,5.2v31c0,0.3-0.2,0.5-0.5,0.5h-0.8
		c-0.3,0-0.5-0.2-0.5-0.5V1.4c0-0.3,0.2-0.5,0.5-0.5h0.7c0.3,0,0.5,0.1,0.6,0.3l22.8,32.4c0.6,0.9,1.6,2.3,2.9,4.2
		c1.3,2,2.2,3.4,2.9,4.3h0.1c0-0.9-0.1-2.7-0.1-5.2c-0.1-2.4-0.1-4.4-0.1-5.7V1.3c0-0.3,0.2-0.4,0.5-0.4H206.6z"/>
	<path d="M243.6,0.9c0.3,0,0.5,0.2,0.5,0.5v0.7c0,0.3-0.2,0.5-0.5,0.5h-24.2v19.2h21.6c0.3,0,0.5,0.2,0.5,0.5V23
		c0,0.3-0.2,0.5-0.5,0.5h-21.6v19.8h25.1c0.3,0,0.5,0.2,0.5,0.5v0.7c0,0.3-0.2,0.5-0.5,0.5h-26.4c-0.3,0-0.5-0.2-0.5-0.5V1.4
		c0-0.3,0.2-0.5,0.5-0.5H243.6z"/>
	<path d="M167.1,106.7c0.1,0.3,0,0.5-0.4,0.5H166c-0.4,0-0.7-0.1-0.9-0.4l-6-15h-21.4l-6,15c-0.1,0.3-0.4,0.4-0.9,0.4h-0.6
		c-0.4,0-0.5-0.2-0.4-0.5l17.6-43.4c0.1-0.3,0.4-0.5,0.7-0.5h0.7c0.4,0,0.6,0.1,0.7,0.4L167.1,106.7z M148.8,66.3
		c-0.2-0.6-0.4-1.1-0.4-1.7h-0.1c-0.1,0.8-0.2,1.4-0.4,1.7l-9.7,23.9h20.3L148.8,66.3z"/>
	<path d="M186.4,63.5c0-0.3,0.2-0.5,0.5-0.5h0.8c0.3,0,0.5,0.2,0.5,0.5v43.1c0,0.3-0.2,0.5-0.5,0.5h-0.8c-0.3,0-0.5-0.2-0.5-0.5
		V63.5z"/>
	<path d="M230.7,63c7.8,0,12.4,4.5,12.4,12.2c0,7.2-4.4,11.6-11.6,11.9c2.4,0.9,4.3,2.7,5.8,5.6l7,13.9c0.2,0.4,0.1,0.6-0.3,0.6
		h-0.7c-0.4,0-0.7-0.1-1-0.4l-6.7-13.2c-2.2-4.5-4.8-6.2-10.1-6.2H214v19.4c0,0.3-0.2,0.5-0.5,0.5h-0.8c-0.3,0-0.5-0.2-0.5-0.5V63.5
		c0-0.3,0.2-0.5,0.5-0.5H230.7z M230.5,64.7H214v20.8h16.5c6.7,0,10.6-3.7,10.6-10.3C241.1,68.5,237.3,64.7,230.5,64.7z"/>
</g>
</svg>
