<?xml version="1.0" encoding="utf-8"?>
<!-- Generator: Adobe Illustrator 23.1.0, SVG Export Plug-In . SVG Version: 6.00 Build 0)  -->
<svg version="1.1" id="Layer_1" xmlns="http://www.w3.org/2000/svg" xmlns:xlink="http://www.w3.org/1999/xlink" x="0px" y="0px"
	 viewBox="0 0 198.6 95.8" enable-background="new 0 0 198.6 95.8" xml:space="preserve">
<g>
	<linearGradient id="SVGID_1_" gradientUnits="userSpaceOnUse" x1="48.2565" y1="81.0817" x2="3.584" y2="50.273">
		<stop  offset="0" style="stop-color:#F074AC"/>
		<stop  offset="0.5" style="stop-color:#EB008B"/>
		<stop  offset="1" style="stop-color:#CD118C"/>
	</linearGradient>
	<polygon fill="url(#SVGID_1_)" points="14.2,71.8 0,48.8 22,48.8 37.2,71.8 	"/>
	<linearGradient id="SVGID_2_" gradientUnits="userSpaceOnUse" x1="40.9996" y1="90.9432" x2="-3.1462" y2="60.4978">
		<stop  offset="0" style="stop-color:#F074AC"/>
		<stop  offset="0.5" style="stop-color:#EB008B"/>
		<stop  offset="1" style="stop-color:#CD118C"/>
	</linearGradient>
	<polygon fill="url(#SVGID_2_)" points="30.1,95.8 20.8,79.8 42.7,79.8 53.1,95.8 	"/>
	<linearGradient id="SVGID_3_" gradientUnits="userSpaceOnUse" x1="74.2419" y1="42.8996" x2="30.5749" y2="12.7844">
		<stop  offset="0" style="stop-color:#F074AC"/>
		<stop  offset="0.5" style="stop-color:#EB008B"/>
		<stop  offset="1" style="stop-color:#CD118C"/>
	</linearGradient>
	<polygon fill="url(#SVGID_3_)" points="62.4,47.8 46.4,25.8 68.4,25.8 84.9,47.8 	"/>
	<linearGradient id="SVGID_4_" gradientUnits="userSpaceOnUse" x1="81.5842" y1="2.8904" x2="-24.6742" y2="123.6732">
		<stop  offset="0" style="stop-color:#F074AC"/>
		<stop  offset="0.5" style="stop-color:#EB008B"/>
		<stop  offset="1" style="stop-color:#CD118C"/>
	</linearGradient>
	<polygon fill="url(#SVGID_4_)" points="46.3,24.3 14.2,71.8 37.4,71.8 57.8,40.8 	"/>
	<linearGradient id="SVGID_5_" gradientUnits="userSpaceOnUse" x1="61.4421" y1="-14.9902" x2="-44.1625" y2="105.0496">
		<stop  offset="0" style="stop-color:#F074AC"/>
		<stop  offset="0.5" style="stop-color:#EB008B"/>
		<stop  offset="1" style="stop-color:#CD118C"/>
	</linearGradient>
	<polygon fill="url(#SVGID_5_)" points="31.6,0 0,48.8 22,48.8 41.6,17.1 	"/>
	<linearGradient id="SVGID_6_" gradientUnits="userSpaceOnUse" x1="102.2993" y1="21.2721" x2="-3.5344" y2="141.5723">
		<stop  offset="0" style="stop-color:#F074AC"/>
		<stop  offset="0.5" style="stop-color:#EB008B"/>
		<stop  offset="1" style="stop-color:#CD118C"/>
	</linearGradient>
	<polygon fill="url(#SVGID_6_)" points="62.4,47.8 30.1,95.8 53.3,95.8 84.9,47.8 	"/>
	<linearGradient id="SVGID_7_" gradientUnits="userSpaceOnUse" x1="81.0379" y1="31.8002" x2="37.4194" y2="1.7185">
		<stop  offset="0" style="stop-color:#F074AC"/>
		<stop  offset="0.5" style="stop-color:#EB008B"/>
		<stop  offset="1" style="stop-color:#CD118C"/>
	</linearGradient>
	<polygon fill="url(#SVGID_7_)" points="41.6,16.8 31.8,0.8 53.7,0.8 64.1,16.8 	"/>
</g>
<g>
	<path d="M102.1,64.5c-0.7,0.4-2.2,0.7-4.1,0.7c-4.4,0-7.7-2.8-7.7-7.9c0-4.9,3.3-8.2,8.1-8.2c1.9,0,3.2,0.4,3.7,0.7l-0.5,1.6
		c-0.8-0.4-1.8-0.6-3.1-0.6c-3.6,0-6.1,2.3-6.1,6.4c0,3.8,2.2,6.3,6,6.3c1.2,0,2.5-0.3,3.3-0.6L102.1,64.5z"/>
	<path d="M106.4,53.8v4.7c0,1.8,0,2.9-0.1,4.5l0.1,0c0.7-1.4,1.1-2.1,1.8-3.4l3.5-5.8h2.4V65h-1.9v-4.7c0-1.8,0-2.8,0.1-4.6h-0.1
		c-0.7,1.4-1.2,2.3-1.8,3.5c-1.1,1.7-2.3,3.9-3.5,5.8h-2.3V53.8H106.4z"/>
	<path d="M125.8,50c-0.6,0.2-1.6,0.4-2.3,0.5c-1.8,0.3-3.1,0.9-4,2.1c-0.7,1-1.1,2.5-1.2,3.7h0.1c0.7-1.6,2.3-2.5,3.9-2.5
		c2.7,0,4.8,2,4.8,5.5c0,3.6-1.9,5.9-5.2,5.9c-3.9,0-5.2-3.8-5.2-7.5c0-2.5,0.5-4.6,1.7-6.2c1.1-1.5,2.6-2.3,4.8-2.6
		c0.9-0.1,2-0.3,2.8-0.6L125.8,50z M121.8,55.3c-1.2,0-2.1,0.6-2.5,1.5c-0.4,0.7-0.6,1.5-0.6,2.4c0,1.8,0.9,4.5,3.1,4.5
		c2.2,0,3.1-2.2,3.1-4.2C124.9,57.7,124.2,55.3,121.8,55.3z"/>
	<path d="M131.4,53.8v4.7c0,1.8,0,2.9-0.1,4.5l0.1,0c0.7-1.4,1.1-2.1,1.8-3.4l3.5-5.8h2.4V65h-1.9v-4.7c0-1.8,0-2.8,0.1-4.6h-0.1
		c-0.7,1.4-1.2,2.3-1.8,3.5c-1.1,1.7-2.3,3.9-3.5,5.8h-2.3V53.8H131.4z"/>
	<path d="M142.3,57.5c0-1.4,0-2.6-0.1-3.6h1.8l0.1,1.9h0c0.8-1.4,2.1-2.2,4-2.2c2.7,0,4.7,2.3,4.7,5.7c0,4-2.4,6-5.1,6
		c-1.5,0-2.8-0.6-3.4-1.8h0v6.1h-2V57.5z M144.3,60.4c0,0.3,0,0.6,0.1,0.8c0.4,1.4,1.6,2.4,3,2.4c2.1,0,3.4-1.8,3.4-4.3
		c0-2.2-1.2-4.2-3.3-4.2c-1.4,0-2.7,1-3.1,2.5c-0.1,0.3-0.1,0.6-0.1,0.8V60.4z"/>
	<path d="M163.4,64.6c-0.5,0.3-1.7,0.6-3.2,0.6c-3.4,0-5.6-2.3-5.6-5.7c0-3.4,2.4-5.9,6-5.9c1.2,0,2.3,0.3,2.8,0.6l-0.5,1.6
		c-0.5-0.3-1.2-0.5-2.4-0.5c-2.6,0-3.9,1.9-3.9,4.2c0,2.6,1.7,4.2,3.9,4.2c1.2,0,1.9-0.3,2.5-0.6L163.4,64.6z"/>
	<path d="M167.8,53.8v4.8h0.5l4.2-4.8h2.5l-4.9,5.1c1.8,0.2,2.9,1.4,3.8,3.4c0.3,0.7,0.7,1.8,1.2,2.7h-2.1c-0.3-0.5-0.7-1.4-1-2.3
		c-0.8-1.8-1.8-2.6-3.7-2.6h-0.4V65h-2V53.8H167.8z"/>
	<path d="M178.7,53.8v4.7c0,1.8,0,2.9-0.1,4.5l0.1,0c0.7-1.4,1.1-2.1,1.8-3.4l3.5-5.8h2.4V65h-1.9v-4.7c0-1.8,0-2.8,0.1-4.6h-0.1
		c-0.7,1.4-1.2,2.3-1.8,3.5c-1.1,1.7-2.3,3.9-3.5,5.8h-2.3V53.8H178.7z"/>
	<path d="M190.7,59.8c0,2.7,1.8,3.9,3.8,3.9c1.5,0,2.3-0.3,3.1-0.6l0.3,1.5c-0.7,0.3-1.9,0.7-3.7,0.7c-3.4,0-5.5-2.3-5.5-5.6
		c0-3.4,2-6,5.2-6c3.6,0,4.6,3.2,4.6,5.3c0,0.4,0,0.7-0.1,0.9H190.7z M196.7,58.3c0-1.3-0.5-3.3-2.8-3.3c-2.1,0-3,1.9-3.1,3.3H196.7
		z"/>
	<path d="M97.3,92.7l-0.2-1.4h-0.1c-0.6,0.9-1.8,1.7-3.4,1.7c-2.3,0-3.4-1.6-3.4-3.2c0-2.7,2.4-4.2,6.7-4.2v-0.2
		c0-0.9-0.3-2.6-2.5-2.6c-1,0-2.1,0.3-2.9,0.8l-0.5-1.3c0.9-0.6,2.3-1,3.7-1c3.4,0,4.2,2.3,4.2,4.6V90c0,1,0,1.9,0.2,2.7H97.3z
		 M97,87c-2.2,0-4.7,0.3-4.7,2.5c0,1.3,0.9,1.9,1.9,1.9c1.5,0,2.4-0.9,2.7-1.9c0.1-0.2,0.1-0.4,0.1-0.6V87z"/>
	<path d="M102.2,81.6c0.8-0.1,2.2-0.3,3.6-0.3c1.9,0,5,0.3,5,2.8c0,1.4-1.1,2.2-2.3,2.5v0c1.6,0.2,2.8,1.2,2.8,2.8
		c0,2.9-3.7,3.3-5.9,3.3c-1.2,0-2.5-0.1-3.1-0.1V81.6z M104.2,91.3c0.6,0.1,1,0.1,1.6,0.1c1.4,0,3.4-0.3,3.4-1.9c0-1.6-1.6-2-3.6-2
		h-1.5V91.3z M104.2,86.2h1.5c1.5,0,3-0.4,3-1.8c0-1.1-1-1.6-3-1.6c-0.7,0-1.1,0-1.6,0.1V86.2z"/>
	<path d="M115.7,81.5v4.7c0,1.8,0,2.9-0.1,4.5l0.1,0c0.7-1.4,1.1-2.1,1.8-3.4l3.5-5.8h2.4v11.2h-1.9v-4.7c0-1.8,0-2.8,0.1-4.6h-0.1
		c-0.7,1.4-1.2,2.3-1.8,3.5c-1.1,1.7-2.3,3.9-3.5,5.8h-2.3V81.5H115.7z"/>
	<path d="M132.8,92.7l-0.2-1.4h-0.1c-0.6,0.9-1.8,1.7-3.4,1.7c-2.3,0-3.4-1.6-3.4-3.2c0-2.7,2.4-4.2,6.7-4.2v-0.2
		c0-0.9-0.3-2.6-2.5-2.6c-1,0-2.1,0.3-2.9,0.8l-0.5-1.3c0.9-0.6,2.3-1,3.7-1c3.4,0,4.2,2.3,4.2,4.6V90c0,1,0,1.9,0.2,2.7H132.8z
		 M132.5,87c-2.2,0-4.7,0.3-4.7,2.5c0,1.3,0.9,1.9,1.9,1.9c1.5,0,2.4-0.9,2.7-1.9c0.1-0.2,0.1-0.4,0.1-0.6V87z"/>
	<path d="M146.2,81.5v11.2h-2v-9.6h-3.8V86c0,3.1-0.3,5.2-1.8,6.2c-0.6,0.4-1.2,0.7-2.2,0.7l-0.2-1.6c0.4-0.1,0.8-0.2,1.1-0.5
		c1-0.8,1.2-2.3,1.2-4.8v-4.5H146.2z"/>
	<path d="M151.4,81.5v4.7c0,1.8,0,2.9-0.1,4.5l0.1,0c0.7-1.4,1.1-2.1,1.8-3.4l3.5-5.8h2.4v11.2h-1.9v-4.7c0-1.8,0-2.8,0.1-4.6h-0.1
		c-0.7,1.4-1.2,2.3-1.8,3.5c-1.1,1.7-2.3,3.9-3.5,5.8h-2.3V81.5H151.4z"/>
	<path d="M164.3,81.5V86h5.3v-4.5h2v11.2h-2v-5.1h-5.3v5.1h-2V81.5H164.3z"/>
	<path d="M176.8,81.5v4.7c0,1.8,0,2.9-0.1,4.5l0.1,0c0.7-1.4,1.1-2.1,1.8-3.4l3.5-5.8h2.4v11.2h-1.9v-4.7c0-1.8,0-2.8,0.1-4.6h-0.1
		c-0.7,1.4-1.2,2.3-1.8,3.5c-1.1,1.7-2.3,3.9-3.5,5.8h-2.3V81.5H176.8z"/>
	<path d="M189.6,81.5v4.7c0,1.8,0,2.9-0.1,4.5l0.1,0c0.7-1.4,1.1-2.1,1.8-3.4l3.5-5.8h2.4v11.2h-1.9v-4.7c0-1.8,0-2.8,0.1-4.6h-0.1
		c-0.7,1.4-1.2,2.3-1.8,3.5c-1.1,1.7-2.3,3.9-3.5,5.8h-2.3V81.5H189.6z"/>
</g>
</svg>
