<?xml version="1.0" encoding="utf-8"?>
<!-- Generator: Adobe Illustrator 23.1.0, SVG Export Plug-In . SVG Version: 6.00 Build 0)  -->
<svg version="1.1" id="Layer_1" xmlns="http://www.w3.org/2000/svg" xmlns:xlink="http://www.w3.org/1999/xlink" x="0px" y="0px"
	 viewBox="0 0 215.6 87.6" enable-background="new 0 0 215.6 87.6" xml:space="preserve">
<path fill="#C82427" d="M115,67.9c-1.8-0.9-3.3-1.6-4.8-2.3c-0.2-0.1-0.4-0.3-0.3-0.5c0.1-0.1,0.3-0.3,0.6-0.3
	c1.1-0.2,2.2-0.5,3.4-0.7c0.3-0.1,0.5-0.3,0.5-0.5c0-0.2-0.2-0.4-0.5-0.4h-8.5c-0.3,0-0.5-0.2-0.6-0.4c-0.1-0.2,0.1-0.5,0.3-0.6
	c2.7-1.5,5.4-2.9,8-4.4c0.2-0.1,0.4-0.4,0.3-0.7c0-0.1,0-0.1-0.1-0.2c-0.1-0.3-0.4-0.4-0.6-0.4c-3.4,0.6-6.9,1.2-10.4,1.9
	c-0.3,0-0.3,0-0.1-0.2c2.4-1.9,4.6-3.7,6.9-5.5c0.2-0.2,0.3-0.4,0.2-0.6c-0.1-0.2-0.4-0.2-0.6-0.1c-2.6,1.3-5.1,2.6-7.7,4
	c-0.2,0.1-0.5,0.2-0.5,0.1c0-0.1,0.1-0.3,0.3-0.5c1.8-1.9,3.5-3.7,5.3-5.6c0.2-0.2,0.2-0.5,0.1-0.7c-0.1-0.2-0.4-0.2-0.6,0l-4.4,3.1
	c-0.2,0.2-0.4,0.2-0.5,0.2c-0.1,0,0-0.3,0.2-0.5c0.8-1.1,1.5-2.2,2.3-3.4c0.2-0.2,0.1-0.5-0.1-0.7c0,0,0,0-0.1,0
	c-0.2-0.2-0.6-0.1-0.8,0c-1.1,1-2.2,2-3.6,3.2c-0.2,0.2-0.3,0.1-0.2-0.1c0.5-1.2,0.9-2.1,1.3-2.9c0.1-0.2,0.1-0.5-0.1-0.6
	c-0.2-0.1-0.4-0.1-0.6,0.1c-0.6,0.6-1.2,1.1-1.8,1.7c-2.5,2.7-5,5.3-7.4,8c-1.1,1.3-2.5,1.6-4.1,1.4c-1.8-0.2-3.5-0.3-5.5-0.4
	c-0.3,0-0.3-0.2-0.1-0.4c0.6-0.6,0.7-1.2-0.2-1.4c-0.3-0.1-0.4-0.3-0.2-0.5c1.1-1.6,2-3.2,2.8-5c1.2-3.1,1.6-6.1,1.7-9.3
	c0.1-2.8-0.3-5.6-0.6-8.5c-0.3-2.7-0.3-5.6-1.3-7.9c-1.3-2.9-0.4-5.7-0.9-8.4C81,16,82.1,14,80.2,12.9c-0.3-0.1,0.2-1.4,0.1-2.5
	c0-0.3-0.2-0.3-0.3-0.1l-1.2,1.8c-0.2,0.2-0.4,0.3-0.5,0.3c-0.1-0.1-0.2-0.3-0.1-0.6l1-3.1c0.1-0.3,0.1-0.5,0-0.6
	c-0.1-0.1-0.3,0.1-0.4,0.3c-1.4,2.4-2.7,4.8-4.1,7.2c-0.1,0.2-0.4,0.4-0.5,0.3c-0.2-0.1-0.2-0.3-0.1-0.6c0.9-2.9,1.7-5.8,2.6-8.7
	c0.1-0.3,0.1-0.5,0-0.5c-0.1,0-0.2,0.1-0.3,0.4c-0.8,2.1-1.6,4.2-2.4,6.3c-0.1,0.3-0.1,0.2-0.1,0c0.8-3.7,1.1-7.5,0.7-11.3
	c-0.1-0.6-1-0.6-1,0c0.5,5.1-0.1,10.1-1.8,14.8c-0.1,0.3-0.1,0.3,0,0c0.7-2.6,1-5.3,0.9-8c0-1,0-2-0.1-3.1c0-0.1,0-0.1-0.1-0.2
	c-0.1-0.1-0.2-0.4-0.2-0.6c-0.3-1.4-0.6-2.8-1.1-4.2C70.9,0.1,70.7,0,70.5,0c-0.3,0-0.4,0.3-0.4,0.2c0,0,0,0,0,0c0,0,0,0.1,0,0.2
	c0,0,0,0.1,0,0.1c0,0.1,0,0.1,0.1,0.2c0,0.1,0.1,0.3,0.1,0.5c0,0.1,0,0.2,0.1,0.3c1.2,4,1.4,8.1,0.7,12.1c0,0.1,0,0.1,0,0.2
	c0,0.1,0,0,0-0.3c0.1-4.2-0.9-8.3-3.2-12c-0.3-0.5-1.2,0-0.8,0.5c2.1,3.5,3.2,7.4,3.1,11.4c0,0.3-0.1,0.3-0.2,0
	c-0.2-0.6-0.5-1.3-0.8-1.9c-0.1-0.2-0.3-0.6-0.4-0.9c-0.8-2.3-1.9-4.5-3.3-6.5c-0.4-0.5-1.2,0-0.8,0.5c0.8,1.1,1.4,2.2,2,3.4
	c0.1,0.2,0.2,0.4,0.2,0.4c0,0-0.3,0.1-0.4,0.3c-0.1,0.2-0.1,0.3,0.1,0.5c0.1,0.1,0.2,0.2,0.3,0.3c0.2,0.2,0.4,0.6,0.5,0.8
	c1.3,3,1.9,6.1,1.7,9.3c0,0.3,0,0.3-0.1,0c-0.1-2.8-0.8-5.6-2.1-8.3c-0.3-0.6-1.1-0.1-0.8,0.5c1.8,3.8,2.3,7.9,1.8,11.9
	c0,0.3-0.1,0.7-0.2,0.9c-2.3,7.3-3.9,14.9-6.3,22.1c-1.4,4.1-2.5,8.2-5,12c-4.3,6.4-12.8,8.5-19.2,4.1c-4.3-3-8.7-2.4-11.5,1.6
	c-0.2,0.2-0.5,0.5-0.7,0.7c-0.5,0.3-1.1,0.7-1.6,1c0,0,0,0-0.1,0c0,0-0.3,0.2-0.3,0.4c0,0.3,0.1,0.6,0.5,0.6
	c1.3,0.1,2.6,0.2,3.9,0.3c0.3,0,0.7,0.1,0.9,0.3c1.8,0.9,3.7,1.7,5.6,2.7c0.2,0.1,0.3,0.4,0.1,0.5c-2.2,1.8-4.9-0.7-7,0.8
	c-0.2,0.2-0.3,0.5-0.3,0.8c0.1,0.4,0.2,0.8,0.3,1.4c0.1,0.3-0.1,0.5-0.4,0.4c-2.7-0.2-5.3-0.6-7.9-0.6c-1.2,0-2.4,0.7-3.7,1
	C13.9,75,13,75,12.2,74.9c-1.7-0.1-3.4-0.2-5.5-0.4c-0.3,0-0.4,0.2-0.3,0.4c0.3,0.6,0.5,1.1,0.8,1.7c0.1,0.2,0,0.4-0.3,0.4H2
	c-0.3,0-0.4,0.2-0.2,0.4c0.5,0.7,0.8,1.1,1.2,1.7c0.2,0.2,0.1,0.4-0.2,0.4c-0.9,0.1-1.7,0.1-2.6,0.1c-0.3,0-0.4,0.2-0.2,0.4
	c0.3,0.4,0.4,0.7,0.7,0.8c5.3,3,11,4.9,17.2,5.1c0.8,0,1.7,0,2.4-0.3c4.4-1.7,8.8-3.4,13.1-5.2c3-1.2,5.8-2.7,8.8-3.9
	c0.6-0.3,1.6,0,2.2,0.3c3.7,1.7,7.3,3.5,10.9,5.3c6.4,3.2,13.2,2.6,20,1.7c2.6-0.3,5.1-0.8,7.7-1.3c1.7-0.3,2.7,0.1,3.1,2
	c0.2,1,0.8,1.8,1.4,2.7c0.1,0.2,0.4,0.3,0.7,0.2c0,0,0,0,0.1,0c0.3-0.1,0.4-0.4,0.3-0.7c-0.4-1.4-0.7-2.9-1.1-4.6
	c-0.1-0.3,0.1-0.4,0.3-0.2c0.7,0.4,1.3,0.8,2,1.2c0.4,0.3,0.6,0.8,1,1.1c1,1,2.3,1.9,3.3,0.6c0.5-0.7,0-2.3-0.4-3.4
	c-0.2-0.5-0.8-0.9-1.3-1.5c-0.2-0.2-0.1-0.3,0.2-0.2c2.3,0.8,4.7,1.7,7.5,2.7c0.3,0.1,0.3,0,0.2-0.3c-1-1.7-1.8-3.1-2.8-4.7
	c-0.1-0.2,0-0.3,0.2-0.3c2.7,1,4.8,1.8,6.9,2.6c0.3,0.1,0.6,0,0.7-0.3c0,0,0,0,0,0c0.1-0.2,0.1-0.6-0.1-0.8
	c-0.6-0.5-1.3-1.1-2.1-1.8c-0.2-0.2-0.2-0.3,0.1-0.2c1.9,0.3,3.6,0.6,5.2,0.8c0.3,0,0.5,0,0.6-0.1c0.1-0.1-0.1-0.3-0.3-0.4
	c-0.7-0.4-1.5-0.8-2.2-1.2c-0.2-0.1-0.4-0.4-0.4-0.5c0-0.2,0.2-0.3,0.5-0.3h5.4c0.3,0,0.5-0.2,0.6-0.4c0-0.2-0.1-0.4-0.4-0.5
	c-1.9-0.7-3.8-1.4-5.8-2.1c-0.3-0.1-0.5-0.3-0.4-0.4c0-0.1,0.2-0.2,0.5-0.3c2.6-0.2,5.2-0.5,8.3-0.8c0.3,0,0.3-0.2,0.1-0.3
	c-0.9-0.5-1.6-0.9-2.3-1.3c-0.2-0.1-0.2-0.3,0.1-0.3c0.7-0.1,1.4-0.2,2.3-0.4C115.2,68.2,115.2,68.1,115,67.9L115,67.9z M115,67.9"
	/>
<g>
	<path d="M136.3,30.1v2.5h-6.8v17.3h-3.1V32.6h-6.6v-2.5H136.3z"/>
	<path d="M155.1,49.9h-14.4V30.1h13.8v2.5h-10.6v6h9.8V41h-9.8v6.5h11.2V49.9z"/>
	<path d="M174.7,30.1v2.5h-6.8v17.3h-3.1V32.6h-6.6v-2.5H174.7z"/>
	<path d="M193.8,35.9c0,0.6-0.1,1.3-0.3,1.8c-0.2,0.6-0.5,1.1-0.9,1.6c-0.4,0.5-0.9,0.9-1.5,1.3c-0.6,0.4-1.3,0.6-2.1,0.8l5.5,8.5
		h-3.6l-5-8.1h-3.8v8.1h-3.2V30.1h7.6c1.2,0,2.2,0.1,3.1,0.4c0.9,0.3,1.6,0.6,2.2,1.1c0.6,0.5,1.1,1.1,1.4,1.8
		C193.7,34.2,193.8,35,193.8,35.9z M190.6,35.9c0-1.1-0.4-2-1.1-2.6c-0.7-0.6-1.8-0.9-3.1-0.9h-4.1v7.1h4.2c0.7,0,1.3-0.1,1.9-0.3
		c0.5-0.2,1-0.4,1.3-0.8c0.3-0.3,0.6-0.7,0.7-1.1C190.5,36.9,190.6,36.4,190.6,35.9z"/>
	<path d="M208.2,30.1l7.4,19.8h-3.2l-2-5.6h-8.1l-2.1,5.6H197l7.5-19.8H208.2z M206.3,32.5L203,42h6.7L206.3,32.5z"/>
	<path d="M141.7,78.9V59.1h2v19.8H141.7z"/>
	<path d="M159.3,78.9v-8.4c0-0.7-0.1-1.3-0.2-1.9c-0.1-0.6-0.4-1.1-0.7-1.5c-0.3-0.4-0.7-0.7-1.2-1c-0.5-0.2-1.1-0.3-1.9-0.3
		c-0.7,0-1.3,0.1-1.9,0.4c-0.6,0.3-1,0.6-1.5,1.1c-0.4,0.5-0.7,1-1,1.6c-0.2,0.6-0.3,1.3-0.3,2v8h-1.9V67.8c0-0.3,0-0.6,0-1
		c0-0.4,0-0.7,0-1s0-0.6,0-0.8c0-0.2,0-0.4,0-0.4h1.8c0,0,0,0.2,0,0.4c0,0.3,0,0.6,0,0.9c0,0.3,0,0.6,0,1c0,0.3,0,0.6,0,0.7h0.1
		c0.6-1.1,1.3-1.9,2.2-2.5c0.9-0.5,1.9-0.8,3.1-0.8c1,0,1.8,0.2,2.5,0.5c0.7,0.3,1.2,0.7,1.6,1.2c0.4,0.5,0.7,1.1,0.9,1.8
		c0.2,0.7,0.3,1.4,0.3,2.2v8.8H159.3z"/>
	<path d="M176.4,74.9c0,0.7-0.1,1.3-0.4,1.8c-0.3,0.5-0.6,1-1.2,1.3c-0.5,0.4-1.1,0.7-1.9,0.9c-0.7,0.2-1.6,0.3-2.5,0.3
		c-0.8,0-1.6-0.1-2.3-0.2c-0.7-0.1-1.3-0.3-1.8-0.6c-0.5-0.3-0.9-0.7-1.3-1.1c-0.3-0.5-0.6-1.1-0.8-1.8l1.8-0.4
		c0.1,0.5,0.3,1,0.6,1.3c0.3,0.3,0.6,0.6,0.9,0.8c0.4,0.2,0.8,0.3,1.3,0.4c0.5,0.1,1,0.1,1.5,0.1c0.6,0,1.1-0.1,1.6-0.2
		c0.5-0.1,0.9-0.3,1.3-0.5c0.4-0.2,0.7-0.5,0.9-0.8c0.2-0.3,0.3-0.7,0.3-1.2c0-0.5-0.1-0.9-0.4-1.2c-0.3-0.3-0.6-0.6-1-0.8
		c-0.4-0.2-0.9-0.4-1.5-0.5c-0.6-0.1-1.2-0.3-1.8-0.4c-0.6-0.1-1.2-0.3-1.8-0.5c-0.6-0.2-1.1-0.4-1.5-0.7c-0.5-0.3-0.8-0.6-1.1-1.1
		c-0.3-0.4-0.4-1-0.4-1.6c0-1.2,0.5-2.2,1.4-2.9c0.9-0.7,2.3-1.1,4.1-1.1c0.7,0,1.4,0.1,2,0.2c0.6,0.1,1.2,0.3,1.6,0.6
		c0.5,0.3,0.9,0.7,1.2,1.1c0.3,0.5,0.5,1,0.7,1.6l-1.8,0.2c-0.1-0.5-0.2-0.8-0.5-1.1c-0.2-0.3-0.5-0.5-0.8-0.7
		c-0.3-0.2-0.7-0.3-1.1-0.4c-0.4-0.1-0.8-0.1-1.3-0.1c-1.2,0-2.2,0.2-2.8,0.6c-0.6,0.4-0.9,1-0.9,1.7c0,0.4,0.1,0.8,0.3,1.1
		c0.2,0.3,0.5,0.5,0.9,0.7c0.4,0.2,0.8,0.4,1.3,0.5c0.5,0.1,1.1,0.3,1.7,0.4c0.6,0.1,1.3,0.3,1.9,0.5c0.6,0.2,1.2,0.4,1.7,0.7
		c0.5,0.3,0.9,0.7,1.2,1.1C176.2,73.6,176.4,74.2,176.4,74.9z"/>
	<path d="M183.1,79.1c-1,0-1.7-0.3-2.2-0.8c-0.5-0.5-0.8-1.4-0.8-2.5v-9.7h-1.9v-1.5h1.9l0.6-3.3h1.3v3.3h3.3v1.5H182v9.4
		c0,0.7,0.2,1.3,0.5,1.6c0.3,0.3,0.8,0.5,1.4,0.5c0.2,0,0.5,0,0.8-0.1s0.6-0.1,0.8-0.2v1.4c-0.4,0.1-0.7,0.2-1.1,0.2
		C183.9,79.1,183.5,79.1,183.1,79.1z"/>
	<path d="M200.5,79c-0.5,0-0.9-0.1-1.2-0.2c-0.3-0.1-0.6-0.3-0.8-0.6c-0.2-0.3-0.3-0.6-0.4-1c-0.1-0.4-0.2-0.8-0.2-1.3h0
		c-0.5,1-1.3,1.8-2.2,2.4c-0.9,0.6-2.1,0.9-3.4,0.9c-0.7,0-1.4-0.1-2-0.3c-0.6-0.2-1.1-0.4-1.5-0.8c-0.4-0.4-0.7-0.8-1-1.3
		c-0.2-0.5-0.3-1.1-0.3-1.7c0-0.9,0.2-1.6,0.6-2.2c0.4-0.6,0.9-1.1,1.5-1.4c0.6-0.4,1.4-0.6,2.2-0.8c0.8-0.2,1.7-0.3,2.6-0.3
		l3.7-0.1v-0.8c0-1.4-0.3-2.3-1-2.9c-0.7-0.6-1.6-0.9-2.9-0.9c-0.6,0-1.1,0.1-1.6,0.2c-0.5,0.1-0.9,0.3-1.2,0.5
		c-0.3,0.2-0.6,0.5-0.8,0.9c-0.2,0.4-0.3,0.8-0.4,1.3l-2-0.2c0.1-0.6,0.3-1.1,0.6-1.6c0.3-0.5,0.7-0.9,1.2-1.3
		c0.5-0.4,1.1-0.6,1.8-0.8c0.7-0.2,1.5-0.3,2.5-0.3c1.9,0,3.3,0.4,4.3,1.3s1.5,2.1,1.5,3.8v5.9c0,0.8,0.1,1.4,0.3,1.8
		c0.2,0.4,0.6,0.6,1.1,0.6c0.1,0,0.3,0,0.5-0.1c0.2,0,0.3-0.1,0.4-0.1v1.3c-0.3,0.1-0.5,0.1-0.8,0.2C201.1,79,200.8,79,200.5,79z
		 M197.9,71.7l-3.3,0.1c-0.7,0-1.4,0.1-2,0.2c-0.6,0.1-1.2,0.3-1.7,0.5c-0.5,0.2-0.9,0.6-1.1,1c-0.3,0.4-0.4,0.9-0.4,1.6
		c0,0.8,0.2,1.4,0.7,1.9c0.5,0.5,1.3,0.7,2.4,0.7c0.8,0,1.6-0.1,2.3-0.4c0.7-0.3,1.2-0.7,1.7-1.1c0.5-0.4,0.8-1,1.1-1.5
		c0.2-0.6,0.4-1.1,0.4-1.6V71.7z"/>
	<path d="M204.8,78.9V58.5h1.9v20.4H204.8z"/>
	<path d="M211.4,78.9V58.5h1.9v20.4H211.4z"/>
</g>
</svg>
