<svg version="1.1" xmlns="http://www.w3.org/2000/svg" xmlns:xlink="http://www.w3.org/1999/xlink" xml:space="preserve">
    <symbol id="phone" viewBox="0 0 18 18">
        <g transform="translate(-749.000000, -1263.000000)">
            <g transform="translate(100.000000, 1162.000000)">
                <g transform="translate(646.000000, 98.000000)">
                    <g>
                        <path d="M19.23,15.26 L16.69,14.97 C16.08,14.9 15.48,15.11 15.05,15.54 L13.21,17.38 C10.38,15.94 8.06,13.63 6.62,10.79 L8.47,8.94 C8.9,8.51 9.11,7.91 9.04,7.3 L8.75,4.78 C8.63,3.77 7.78,3.01 6.76,3.01 L5.03,3.01 C3.9,3.01 2.96,3.95 3.03,5.08 C3.56,13.62 10.39,20.44 18.92,20.97 C20.05,21.04 20.99,20.1 20.99,18.97 L20.99,17.24 C21,16.23 20.24,15.38 19.23,15.26 Z"></path>
                    </g>
                </g>
            </g>
        </g>
    </symbol>
    <symbol id="leaves" viewBox="0 0 16 15.2">
        <g id="_x31__1_">
        	<path id="_x34_" class="st0" d="M2.4,14.8c0,0,2.9-5.9,9.9-5.3"/>
        	<path id="_x33_" class="st0" d="M4.3,12.2c0,0-0.8-5.4,5.1-5.5c4.5,0.3,6.1,2.7,6.1,2.7s-2,4.3-7,4.8c-1.6,0.1-3.6-1-3.6-1"/>
        	<path id="_x32_" class="st0" d="M2.8,12c0,0-0.1-2.2-0.4-3.2S2,5.2,2.7,3.7"/>
        	<path id="_x31__2_" class="st0" d="M2.3,9.3c0,0-2-1-1.8-3.8s2.5-5,2.5-5s4.1,3.7,0.6,7.9"/>
        </g>
    </symbol>
    <symbol id="truck" viewBox="0 0 18.2 14.8">
        <g>
        	<path id="_x35_" class="st0" d="M11.2,3.8h3.6c0,0,0.4,0,0.9,0.5c0.2,0.2,0.4,0.5,0.7,0.9c0.5,0.7,1.1,1.4,1.1,1.4s0.4,0.4,0.4,1.1
        		s0,3.5,0,3.5S18,12,16.8,12c-0.2,0-0.8,0-0.8,0"/>
        	<circle id="_x34_" class="st0" cx="4.7" cy="12.4" r="1.9"/>
        	<circle id="_x33_" class="st0" cx="14.1" cy="12.4" r="1.9"/>
        	<g id="_x32_">
        		<circle id="_x33__1_" class="st0" cx="4" cy="4.2" r="3.7"/>
        		<polyline id="_x32__1_" class="st0" points="2.7,5.5 4.1,4.4 4.1,1.9 		"/>
        		<circle id="_x31__1_" cx="4" cy="4.4" r="0.5"/>
        	</g>
        	<path id="_x31_" class="st0" d="M17.7,8.1h-4c0,0-0.6-0.1-0.6-0.8s0-1.5,0-1.5s0-0.5,0.7-0.5c0.8,0,2.5,0,2.5,0"/>
        	<line id="_x33__2_" class="st0" x1="12.2" y1="12" x2="10" y2="12"/>
        	<path id="_x32__2_" class="st0" d="M1.1,6.5v4.8c0,0,0,0.7,0.8,0.7s0.9,0,0.9,0"/>
        	<path id="_x31__3_" class="st0" d="M6.6,12h3.5c0,0,0.9,0.1,0.9-0.9S11,3,11,3s0-0.8-0.9-0.8s-2.9,0-2.9,0"/>
        </g>
    </symbol>
    <symbol id="soft-ruler" viewBox="0 0 15.2 15.2">
        <g id="_x31__1_">
        	<path id="_x35_" class="st0" d="M10.1,3.8c0,0,0.3-3.4-3.8-3.4c-3.2,0-2.5,0-2.5,0S1,0.4,0.4,2.6c0,2,0,5.7,0,6.1S1,11.1,4,11.1"/>
        	<path id="_x34_" class="st0" d="M14.8,6.8c0,0,0,4.6,0,6.3s-1.6,1.6-1.6,1.6s-5,0-6.4,0s-1.5-0.8-1.5-0.8s0-1.7,0-3.4
        		s1.2-1.6,1.2-1.6s4.7,0,6.2,0S14.8,8.2,14.8,6.8s-1.4-1.7-1.4-1.7s-7.4,0-9.3,0S0.9,3.7,0.9,3.7L0.4,3.2"/>
        	<line id="_x33_" class="st0" x1="8.9" y1="10.8" x2="8.9" y2="9"/>
        	<line id="_x32_" class="st0" x1="12.6" y1="10.8" x2="12.6" y2="8.9"/>
        	<ellipse id="_x31__2_" cx="5.3" cy="2.9" rx="1" ry="0.4"/>
        </g>
    </symbol>
</svg>

   