 <svg version="1.1" xmlns="http://www.w3.org/2000/svg" xmlns:xlink="http://www.w3.org/1999/xlink" xml:space="preserve">
    <symbol id="healthy" viewBox="0 0 18.8 20">
        <g>
            <ellipse id="_x33_" transform="matrix(0.9981 -6.104632e-02 6.104632e-02 0.9981 -0.2004 0.5653)" class="st0" cx="9.2" cy="3.6" rx="2.7" ry="3.1"/>
                <path id="_x32_" class="st0" d="M4.8,18.5c0,0-0.1-3.4,0.2-4.9c0.2-1.5,1-2.4,0.7-3.3c0,0-0.8-1.2-1.4-1.8S1.2,4.8,1.2,4.8
                s-0.5-0.7,0-1.1c0.5-0.3,1.1-0.3,1.3-0.1c0.2,0.2,2.2,2.3,2.2,2.3S6.7,8,8.7,8s3-0.6,3.3-0.8C12.2,7,13.2,6.4,13.7,6
                c0.5-0.4,2.5-2,2.5-2s0.7-0.7,1.1-0.5c0,0,0.5,0.1,0.7,0.5c0.2,0.4-0.6,1.2-0.6,1.2l-2.2,2.2c0,0-2.3,2.6-2.4,4.3
                c0,0-0.2,1.8,0.2,3.6c0.4,1.8,1,3.1,1,3.1"/>
            <g id="_x31__1_">
                <path id="_x34_" d="M17.1,5.4l-0.5,0.5c0.9,1.4,1.4,3,1.4,4.6c0,2.4-1,4.4-2.5,6l0.5,0.5c1.7-1.7,2.8-4.1,2.8-6.6
                    C18.6,8.7,18,6.9,17.1,5.4z"/>
                <path id="_x33__1_" d="M11.5,2.3c1.6,0.4,3,1.2,4,2.3L16,4.1c-1.3-1.4-3.1-2.3-5-2.7L11.5,2.3z"/>
                <path id="_x32__1_" d="M7.1,1.6C5.5,2,4,2.9,2.9,4l0.5,0.5c0.9-0.9,2.1-1.6,3.4-2.1L7.1,1.6z"/>
                <path id="_x31__2_" d="M14.1,17.8c-1.4,0.9-3,1.5-4.7,1.5c-4.7,0-8.6-3.9-8.6-8.6C0.8,9,1.3,7.5,2,6.1L1.5,5.5
                    c-0.9,1.5-1.5,3.2-1.5,5c0,5.1,4.1,9.3,9.3,9.3c1.9,0,3.6-0.6,5-1.5L14.1,17.8z"/>
            </g>
        </g>
    </symbol>
    <symbol id="tasty" viewBox="0 0 20.6 20.8">
        <g id="_x31__1_">
        	<circle id="_x34_" class="st0" cx="10.3" cy="10.4" r="9.8"/>
        	    <path id="_x33_" class="st0" d="M4.1,12.8c0,0,2.4,3.3,6.1,3.3s5.9-3.3,5.9-3.3"/>
        	<g id="_x32_">
        		<path id="_x33__1_" class="st0" d="M6.9,11.1c0,0-2.6-1.4-2.6-2.7C4.2,7.2,5.7,6.3,6.9,7.8"/>
        		<path id="_x32__1_" class="st0" d="M6.5,11.1c0,0,2.6-1.4,2.6-2.7c0.1-1.2-1.4-2.1-2.6-0.7"/>
        		<polygon id="_x31__3_" points="6.6,8 6.7,8.1 6.8,8 6.8,7.8 6.6,7.9 		"/>
        	</g>
        	<g id="_x31__2_">
        		<path id="_x33__2_" class="st0" d="M13.7,11.1c0,0-2.6-1.4-2.6-2.7c-0.1-1.2,1.4-2.1,2.6-0.7"/>
        		<path id="_x32__2_" class="st0" d="M13.3,11.1c0,0,2.6-1.4,2.6-2.7c0.1-1.2-1.4-2.1-2.6-0.7"/>
        		<polygon id="_x31__4_" points="13.4,8 13.5,8.1 13.6,8 13.6,7.8 13.4,7.9 		"/>
        	</g>
        </g>
    </symbol>
    <symbol id="strong" viewBox="0 0 22.3 18.9">
        <g>
            <path id="_x31__1_" class="st0" d="M7.3,11.6c-0.3-0.7-0.9-2-1.7-2.7c-1.2-1-2.1-2.4-2.5-3.8c0-0.5,0.3-1,1-1.2c0,0,0.2,1,0.7,1
        	S5.6,4.7,6.2,4s0.7-0.8,0.7-0.8s0.5-0.8,0-1.2S5.1,0.7,5.1,0.7S4.5,0.5,4.2,0.5S3.3,0.5,2.8,1C2.2,1.4,1,2.6,1,2.6S0.4,3.4,0.4,4.5
        	c0,1.2,0.4,4.8,0.4,4.8s0.5,2.5,1.1,4.1s1.9,3.3,3.1,4.3c0.4,0.4,0.9,0.7,1.1,0.7c0.6,0,1.4-0.6,2.1-0.6s2.1,0.6,3.4,0.6
        	s5.3-0.9,6.8-5.8c0,0,3.5-0.8,3.5-4.5s-3.1-4.6-4.4-4.6S13,4.4,13,7.7v0.6c0,0-0.7-0.5-1.8-0.5s-3.4,0.7-3.6,3.7L7.3,11.6z"/>
        </g>
    </symbol>
</svg>    